<svg xmlns="http://www.w3.org/2000/svg" viewBox="0 0 1845.42 221.91"><defs><style>.cls-1{fill:#029be3;}.cls-2{fill:#039ce4;}.cls-3{fill:#fc6a02;}.cls-4{fill:#0f131f;}.cls-16,.cls-5{fill:#07092c;}.cls-6{fill:#1a1d29;}.cls-7{fill:#1782b8;}.cls-8{fill:#1a5070;}.cls-9{fill:#469be1;}.cls-10{fill:#f28e21;}.cls-11{fill:#fc6030;}.cls-12{fill:#f77327;}.cls-13{fill:#f67928;}.cls-14{fill:#fb6630;}.cls-15{fill:#f58127;}.cls-16,.cls-18{font-size:60px;font-family:Montserrat-Black, Montserrat;font-weight:800;}.cls-17{letter-spacing:-0.01em;}.cls-19{letter-spacing:-0.01em;}</style></defs><g id="Layer_2" data-name="Layer 2"><g id="Layer_1-2" data-name="Layer 1"><path class="cls-1" d="M0,53.16C46.92,71.69,95,85.94,145,93.47c30.5,4.6,61.13,7.82,91.9,9.84,65.69,4.31,131.51,5.19,197.29,7.09,50,1.44,99.91,3.55,149.65,8.89,50.57,5.44,100.42,15,150,26.14,41.43,9.31,82.69,19.39,124.36,27.63a22.62,22.62,0,0,1,7.1,2.87H250.05c-3,0-6-.13-9-.2a54.35,54.35,0,0,0-6.34-3.37c-10.4-4-20.81-7.91-31.31-11.63C137.16,137.21,68.24,124,0,108.06Z"/><path class="cls-2" d="M1651.83,144c-32.52-31.78-72.79-50.32-114.53-66C1481.7,57,1424.87,39.74,1368.14,22.2,1344.31,14.83,1320.3,8,1296.05,2.11c-1.25-.31-2.76-.14-3.18-1.86h61c3.53,3.3,7.81,3.19,12.18,2.66l3.79.25a1.58,1.58,0,0,0,2.26.66l3.74.41a2.69,2.69,0,0,0,3.22.72l2.76.52c.37.49.73,1.4,1.1,1.41,5.42.08,10.46,2.65,15.92,2.36l.48,1.29.61-1.19a.87.87,0,0,0,0-.69l2.88,1c.41.61.7,1.53,1.27,1.75.82.33.74-.63.85-1.17l2.07-.18,4.46.65-.09.47c-.33.63-.43,1.35.28,1.68a1.73,1.73,0,0,0,2.42-1l2.78.49q2.12,3.36,4.09.84l1.86.5c.34.55.56,1.44,1,1.6,5.1,1.72,10.63,1.47,15.7,3.39.25.1.89-.84,1.34-1.29l1.9.29c.15.8.11,1.89,1,2.09,13.52,2.83,27.06,5.56,40.57,8.4,8.81,1.85,17.53,4.23,26.41,5.62,5.35.83,10.37,4.07,16.08,2.46l1.93.19c.42,1.91,2.22,1.91,3.52,2.21,9.73,2.23,19.46,4.48,29.26,6.31,2.3.42,4.64,3.15,7.23.6l1.93.22c.23.95.38,1.95,1.61,2.19,6.67,1.35,13.32,2.88,20,4,2.08.34,4.26,2.36,6.48.27l1.94.23c5.16,3.47,11,4,17,4l2,.08c4.77,3.67,10.44,3.62,16,3.89l2,.09c3.89,4,9.59,2.5,14.11,4.62Z"/><path class="cls-3" d="M0,108.06C68.24,124,137.16,137.21,203.42,160.71c10.5,3.72,20.91,7.66,31.31,11.63a54.35,54.35,0,0,1,6.34,3.37c-1.16.07-2.32.2-3.48.2H45.06c-1.33,0-2.65-.16-4-.24a425.7,425.7,0,0,1-38.32-20.1c-.82-.49-1.68-1.13-2.76-.6Z"/><path class="cls-4" d="M1402.76,9.7l-2.88-1c-1.65-2.6-4.71-1.74-6.75-1.87-3.82-.24-7.31-3.41-11.32-1.32L1379.05,5c-.74-1.71-1.77-2.14-3.22-.73l-3.74-.41c-.5-1.08-1.08-1.88-2.26-.66L1366,2.91a2.76,2.76,0,0,0-.15-.8c1.9-1.58,4.16-.83,6.25-.83q139.84-.06,279.69,0V62.14c-4.93,1.46-9.28-2.17-14.11-1.62l-2-.09c-5-2.79-10.58-3.09-16-3.89l-2-.08c-5.32-2.78-11.16-3.38-17-4l-1.94-.23c-1.5-2.82-4.45-1.73-6.66-2.18-7.15-1.45-14.07-4.09-21.46-4.26l-1.93-.22c-4-2.48-8.6-2.76-13-3.7-9-1.92-17.8-4.69-27-5.42l-1.93-.19a7,7,0,0,0-2-1.33c-8.69-1.95-17.4-3.81-26.1-5.72-13.35-2.92-26.66-6.06-40.07-8.7-5.27-1-10.35-3.37-15.91-2.82l-1.9-.3c-5.67-3-11.84-3.43-18.07-3.69l-1.86-.5.11-.36-1.18-.61-3,.13-2.78-.49a.72.72,0,0,0-.17-.67c-.45-2-1.59-.53-2.44-.5L1407,10.1a1.71,1.71,0,0,0-2.15-.8Z"/><path class="cls-5" d="M0,155c1.08-.53,1.94.11,2.76.6a425.7,425.7,0,0,0,38.32,20.1L0,175.94Z"/><path class="cls-6" d="M1651.83,1.25q-139.85,0-279.69,0c-2.09,0-4.35-.75-6.25.83-1.32.08-2.07-.46-2-1.86q141.73,0,283.47.07C1648.79.32,1650.72-.84,1651.83,1.25Z"/><path class="cls-7" d="M1637.72,60.52c4.83-.55,9.18,3.08,14.11,1.62v3C1647.31,63,1641.61,64.52,1637.72,60.52Z"/><path class="cls-8" d="M1363.86.25c0,1.4.71,1.94,2,1.86a2.76,2.76,0,0,1,.15.8c-4.37.53-8.65.64-12.18-2.66Z"/><path class="cls-9" d="M862.72,116.05c0-1.33-.1-2.67,0-4,.61-7.25-.55-12.63-7.39-18-14.3-11.16-12.48-32.64,2.23-42.76,1.07-.73,2.15-2,3.51-1.44,1.56.66.8,2.35.82,3.57.07,5.49,0,11,0,16.46,0,6,9.35,11,14.79,8.35,5.21-2.5,7.3-5.93,6.66-11.69-.51-4.6,0-9.3-.15-13.95-.14-3.72,1.21-4,4-2.22,8.67,5.48,13.43,13.42,13.55,23.53S895.89,91.79,887.5,97c-3,1.88-4,3.7-4,7.06.2,8.3,0,16.61.12,24.92.08,3.61-1.14,5.2-4.89,5a117,117,0,0,0-12,0c-3,.14-4.22-.95-4.12-4C862.83,125.36,862.71,120.7,862.72,116.05Z"/><path class="cls-10" d="M899.85,50.29c-11.18-12.39-28-15.56-43.15-8.16-.89.43-1.82.78-2.73,1.17-1.4-1.76-3.37-1.08-5.11-1.09-8-.07-15.93,0-23.9,0-2-1-.9-2.1-.15-3.18a56,56,0,0,1,8.67-9.58c3.38-3.06,5.88-6,11.34-1.61,6.06,4.91,15.63-.35,16.13-8.31.24-3.66,1.68-4.36,4.69-4.68a68.83,68.83,0,0,1,15.91.14c2.3.29,3.4,1,3.43,3.67,0,4.72,2.61,8.17,7,9.93s8.6,1.07,11.92-2.39c1.7-1.79,2.84-1.51,4.55-.19a79.51,79.51,0,0,1,11.76,11.44c2.06,2.4,2.65,4.21-.18,6.46-1.36,1.08-2.18,2.84-3.25,4.3C911.15,48.86,905.1,46.43,899.85,50.29Z"/><path class="cls-11" d="M845.69,97.14c2.1,1.88,4.14,3.83,6.33,5.59a4.41,4.41,0,0,1,1.8,3.83c-.06,7.61,0,15.23,0,23.65a62.08,62.08,0,0,1-29.38-21.87c-.82-1.11-.89-2.09.23-3,2.31-1.88,3.08-4.65,4.2-7.21C834.47,98.05,840.12,98.3,845.69,97.14Z"/><path class="cls-12" d="M932.47,68.14c.32,4.7,1.18,9.43-.69,14a1.82,1.82,0,0,0-.81,2.07c-.81,2.45-3,1.19-4.55,1.63a15.91,15.91,0,0,0-7,4.39c-4.55-.48-9.23.48-13.68-1.2,2.69-7.39,4-14.94,2.54-22.79,5.79,0,11.59,0,17.37-.18A9.58,9.58,0,0,1,932.47,68.14Z"/><path class="cls-13" d="M813.93,80.1c-1.64-5.26-.72-10.49.21-15.71.26-1.43.79-2.48,2.57-2.34,3.77.29,6.68-1.62,9.41-3.89,4.55,1.7,9.3.71,14,1a56.28,56.28,0,0,0-3.08,18c-5.45,0-10.91.13-16.36-.09C817.74,76.94,815.47,77.54,813.93,80.1Z"/><path class="cls-14" d="M905.75,89.05c4.45,1.68,9.13.72,13.68,1.2-2.73,5.31-2.78,10.37,1.71,14.79,2.89,2.84-.21,3.76-1.48,5.31-9-2.61-18.26-.73-27.37-1.29-.85-3.06-.09-5.31,2.71-7.17C899.81,98.7,902.73,93.8,905.75,89.05Z"/><path class="cls-12" d="M813.93,80.1c1.54-2.56,3.81-3.16,6.7-3,5.45.22,10.91.08,16.36.09.58,7.67,4.54,13.88,8.7,20-5.57,1.16-11.22.91-16.85,1-1.52-8.89-3.37-10.89-12-12.33C813.16,85.16,814.31,82.3,813.93,80.1Z"/><path class="cls-11" d="M892.29,109.06c9.11.56,18.35-1.32,27.37,1.29a57,57,0,0,1-24.14,18.59c-2.61,1.05-3.63.45-3.53-2.45C892.19,120.68,892.2,114.87,892.29,109.06Z"/><path class="cls-15" d="M840.07,59.19c-4.65-.32-9.4.67-14-1,3.55-5.61,3.14-10.95-1.16-16,8,0,15.94,0,23.9,0,1.74,0,3.71-.67,5.11,1.09A47.9,47.9,0,0,0,840.07,59.19Z"/><path class="cls-15" d="M932.47,68.14a9.58,9.58,0,0,0-6.81-2.06c-5.78.21-11.58.14-17.37.18-1.91-5.8-4.17-11.41-8.44-16,5.25-3.86,11.3-1.43,16.95-2.12.4,8.7,3.64,12.3,12.63,13.87C933.35,62.72,932.39,65.65,932.47,68.14Z"/><path class="cls-15" d="M931,84.23a1.82,1.82,0,0,1,.81-2.07C932.92,83.41,931.27,83.56,931,84.23Z"/><path class="cls-7" d="M1442.72,17.74c5.56-.55,10.64,1.79,15.91,2.82,13.41,2.64,26.72,5.78,40.07,8.7,8.7,1.91,17.41,3.77,26.1,5.72a7,7,0,0,1,2,1.33c-5.71,1.61-10.73-1.63-16.08-2.46-8.88-1.39-17.6-3.77-26.41-5.62-13.51-2.84-27-5.57-40.57-8.4C1442.83,19.63,1442.87,18.54,1442.72,17.74Z"/><path class="cls-7" d="M1528.75,36.5c9.22.73,18,3.5,27,5.42,4.39.94,9,1.22,13,3.7-2.59,2.55-4.93-.18-7.23-.6-9.8-1.83-19.53-4.08-29.26-6.31C1531,38.41,1529.17,38.41,1528.75,36.5Z"/><path class="cls-7" d="M1570.69,45.84c7.39.17,14.31,2.81,21.46,4.26,2.21.45,5.16-.64,6.66,2.18-2.22,2.09-4.4.07-6.48-.27-6.71-1.1-13.36-2.63-20-4C1571.07,47.79,1570.92,46.79,1570.69,45.84Z"/><path class="cls-7" d="M1422.75,13.75c6.23.26,12.4.73,18.07,3.69-.45.46-1.09,1.4-1.34,1.3-5.07-1.92-10.6-1.67-15.7-3.39C1423.31,15.19,1423.09,14.3,1422.75,13.75Z"/><path class="cls-8" d="M1381.81,5.47c4-2.09,7.5,1.08,11.32,1.32,2,.13,5.1-.73,6.75,1.87a.81.81,0,0,1,0,.68l-1.08-.1c-5.46.29-10.5-2.28-15.92-2.36C1382.54,6.87,1382.18,6,1381.81,5.47Z"/><path class="cls-7" d="M1600.75,52.51c5.84.57,11.68,1.17,17,4C1611.77,56.47,1605.91,56,1600.75,52.51Z"/><path class="cls-7" d="M1619.72,56.54c5.46.8,11,1.1,16,3.89C1630.16,60.16,1624.49,60.21,1619.72,56.54Z"/><path class="cls-7" d="M1416.8,12.41l3-.13,1.18.61-.11.36Q1418.91,15.77,1416.8,12.41Z"/><path class="cls-8" d="M1375.83,4.23c1.45-1.41,2.48-1,3.22.73A2.71,2.71,0,0,1,1375.83,4.23Z"/><path class="cls-7" d="M1413.85,11.25a.72.72,0,0,1,.17.67,1.73,1.73,0,0,1-2.42,1c-.71-.33-.61-1.05-.28-1.68Z"/><path class="cls-7" d="M1402.76,9.7l2-.4c0,.33,0,.66.08,1-.11.54,0,1.5-.85,1.17C1403.46,11.23,1403.17,10.31,1402.76,9.7Z"/><path class="cls-8" d="M1369.83,3.16c1.18-1.22,1.76-.42,2.26.66A1.58,1.58,0,0,1,1369.83,3.16Z"/><path class="cls-8" d="M1413.85,11.25l-2.53,0,.09-.47C1412.26,10.72,1413.4,9.28,1413.85,11.25Z"/><path class="cls-7" d="M1398.83,9.24l1.08.1-.6,1.19Z"/><path class="cls-8" d="M1404.88,10.28c0-.32-.06-.65-.08-1a1.71,1.71,0,0,1,2.15.8Z"/><path class="cls-8" d="M1421,12.89l-1.18-.61Z"/><text class="cls-16" transform="translate(412.01 94.17)">TECHNI<tspan class="cls-17" x="241.74" y="0">C</tspan><tspan x="285.78" y="0">AL</tspan></text><text class="cls-18" transform="translate(952.73 97.68)">SER<tspan class="cls-19" x="124.5" y="0">V</tspan><tspan x="170.76" y="0">ICE</tspan></text></g></g></svg>